<svg xmlns="http://www.w3.org/2000/svg" width="320" height="320" viewBox="0 0 320 320">
  <title>Diversity Key v2.0</title>
  <g>
    <polygon points="296.919 290.028 161.879 154.118 25.969 290.028 296.919 290.028" fill="#ffd602"/>
    <polygon points="296.919 290.028 161.879 154.118 25.969 290.028 296.919 290.028" fill="#19627c"/>
    <polygon points="296.919 290.028 161.879 154.118 25.969 290.028 296.919 290.028" fill="#c13889"/>
    <polygon points="293.005 290.028 161.879 154.118 25.969 290.028 293.005 290.028" fill="#f04e41"/>
    <polygon points="267.563 290.028 161.879 154.118 25.969 290.028 267.563 290.028" fill="#e9a03a"/>
    <polygon points="220.592 290.028 161.879 154.118 25.969 290.028 220.592 290.028" fill="#4468b1"/>
    <polygon points="156.008 290.028 161.879 154.118 25.969 290.028 156.008 290.028" fill="#1fb99e"/>
  </g>
  <g style="isolation: isolate">
    <path d="M38.007,46.817l-1.8.314-1.438-8.246,3.911-.683a2.45,2.45,0,0,1,2.951,2.2,2.386,2.386,0,0,1-1.085,2.637l2.184,2.955-2,.349-1.97-2.774-1.287.225Zm1.1-4.866a.777.777,0,0,0,.719-.966l-.09-.52a.778.778,0,0,0-1-.664l-1.891.33.376,2.149Z"/>
    <path d="M42.975,42.749c-.343-1.961.474-3.419,2.342-3.745,2.055-.358,3.142.985,3.435,2.663l.091.521-3.981.7.016.094a1.237,1.237,0,0,0,1.6,1.1,1.988,1.988,0,0,0,1.393-1.01L48.94,44a3.422,3.422,0,0,1-2.42,1.482C44.617,45.811,43.322,44.734,42.975,42.749Zm1.69-.989.017.094,2.174-.379-.019-.106c-.132-.756-.562-1.2-1.261-1.083A1.152,1.152,0,0,0,44.665,41.76Z"/>
    <path d="M49.468,38.426l1.749-.306.182,1.04.058-.01a1.706,1.706,0,0,1,1.459-1.472c1.573-.275,2.585.718,2.952,2.82s-.248,3.392-1.819,3.666a1.718,1.718,0,0,1-1.872-.891l-.06.01.6,3.4-1.749.3Zm4.676,2.933-.188-1.074A1.184,1.184,0,0,0,52.585,39.2c-.661.116-1.086.543-.987,1.11l.32,1.832c.1.566.643.826,1.3.71A1.183,1.183,0,0,0,54.144,41.359Z"/>
    <path d="M57.4,42.6l-.042-.238a1.061,1.061,0,0,1,2.08-.363l.041.237A1.06,1.06,0,0,1,57.4,42.6Z"/>
    <path d="M65.946,37.925l-1.081-1.517-.035.006.969,5.553-1.689.3-1.44-8.246,1.962-.342,2.937,3.505,1.08,1.515.035-.006-.969-5.552,1.691-.3,1.438,8.246-1.961.342Z"/>
    <path d="M77.157,39.984a1.2,1.2,0,0,1-1.37-.88l-.071.012a1.7,1.7,0,0,1-1.6,1.546,1.754,1.754,0,0,1-2.242-1.471c-.228-1.311.678-2.115,2.321-2.4l.98-.171-.068-.389a.9.9,0,0,0-1.2-.8,1.555,1.555,0,0,0-1.207.966l-1.2-.742a2.748,2.748,0,0,1,2.3-1.618c1.748-.3,2.787.342,3.042,1.807l.475,2.718.579-.1.236,1.358Zm-1.686-1.641-.128-.732-.851.149c-.672.118-.984.428-.906.876l.031.177c.079.449.412.61.931.519C75.127,39.231,75.571,38.911,75.471,38.343Z"/>
    <path d="M79.3,39.611l-1.083-6.2,1.749-.3.184,1.051.07-.011a1.679,1.679,0,0,1,1.458-1.485,1.742,1.742,0,0,1,1.955.949l.035-.005a1.958,1.958,0,0,1,1.672-1.583c1.193-.208,2.012.575,2.284,2.133L88.3,38.04l-1.748.3L85.9,34.6c-.141-.8-.479-1.134-1.057-1.034a.946.946,0,0,0-.87,1.089l.7,4.018-1.748.306-.653-3.747c-.141-.8-.491-1.131-1.058-1.033a.953.953,0,0,0-.869,1.089l.7,4.018Z"/>
    <path d="M88.936,34.728c-.343-1.961.474-3.419,2.342-3.746,2.054-.358,3.141.986,3.434,2.664l.091.52-3.981.7.016.1a1.238,1.238,0,0,0,1.6,1.1,1.992,1.992,0,0,0,1.394-1.011l1.065.935a3.42,3.42,0,0,1-2.42,1.481C90.577,37.789,89.282,36.713,88.936,34.728Zm1.69-.989.017.094,2.174-.38-.019-.105c-.133-.756-.563-1.2-1.261-1.083A1.151,1.151,0,0,0,90.626,33.739Z"/>
    <path d="M98.23,35.224l.042.237a3.4,3.4,0,0,1-.82,2.771l-1.181.206a3.914,3.914,0,0,0,.874-1.831.891.891,0,0,1-.953-.784l-.041-.237a1.06,1.06,0,0,1,2.079-.362Z"/>
    <path d="M102.883,35.495l-1.439-8.246,3.9-.681a2.46,2.46,0,0,1,2.964,2.2,2.459,2.459,0,0,1-2.045,3.071l-2.1.367.52,2.978Zm1-4.85,1.891-.331a.775.775,0,0,0,.719-.964l-.09-.521a.777.777,0,0,0-1-.664l-1.891.33Z"/>
    <path d="M114.949,33.389a1.2,1.2,0,0,1-1.37-.881l-.071.013a1.7,1.7,0,0,1-1.6,1.545,1.754,1.754,0,0,1-2.242-1.47c-.228-1.313.678-2.116,2.321-2.4l.98-.171-.068-.389a.9.9,0,0,0-1.2-.8,1.554,1.554,0,0,0-1.207.965l-1.2-.74a2.747,2.747,0,0,1,2.3-1.619c1.748-.3,2.787.342,3.042,1.807l.475,2.718.579-.1.236,1.359Zm-1.686-1.642-.128-.731-.85.148c-.673.117-.985.428-.907.876l.031.178c.079.448.412.609.931.518C112.919,32.636,113.363,32.315,113.263,31.747Z"/>
    <path d="M117.092,33.016l-1.082-6.2,1.748-.3.235,1.347.059-.011a1.58,1.58,0,0,1,1.349-1.622l.306-.054.285,1.631-.437.076c-1.016.177-1.473.488-1.347,1.209l.633,3.627Z"/>
    <path d="M124.088,31.794a1.657,1.657,0,0,1-2.158-1.485l-.529-3.038-.875.154-.238-1.36.438-.076c.472-.083.573-.343.5-.768l-.178-1.017,1.571-.274.293,1.677,1.229-.214.237,1.359-1.228.215.608,3.485,1.135-.2.236,1.358Z"/>
    <path d="M129.153,24.519l1.63-.286-1.137,7.578a1.794,1.794,0,0,1-1.656,1.738l-1.087.189-.238-1.358,1.17-.2.093-.723-3.313-6.142,1.738-.3,1.415,2.735.763,1.719.07-.012.147-1.878Z"/>
  </g>
  <g style="isolation: isolate">
    <path d="M39.645,61.593l.586-.688a2.316,2.316,0,0,0,2.163.817,1.473,1.473,0,0,0,1.4-1.865c-.149-.851-.571-1.179-1.631-1.25l-.641-.046c-1.5-.1-2.289-.634-2.513-1.911-.255-1.465.605-2.395,2.117-2.659a2.683,2.683,0,0,1,2.7.894l-.61.617a1.955,1.955,0,0,0-1.982-.69c-1.005.176-1.476.685-1.3,1.677.138.791.615,1.086,1.614,1.155l.641.046c1.6.111,2.293.647,2.53,2.006.27,1.547-.577,2.56-2.184,2.84A3.081,3.081,0,0,1,39.645,61.593Z"/>
    <path d="M47.8,61.472a.809.809,0,0,1-1.083-.76l-.765-4.384-.9.156-.138-.791.532-.091c.354-.063.416-.269.354-.623l-.2-1.134.814-.142.293,1.678,1.182-.207.139.791-1.182.207.787,4.514,1.123-.2.139.791Z"/>
    <path d="M54.178,60.358a.8.8,0,0,1-1.026-.721l-.021-.118-.118.02a1.526,1.526,0,0,1-1.339,1.4,1.59,1.59,0,0,1-2.069-1.464c-.2-1.135.411-1.972,1.994-2.248l1.1-.192-.118-.674c-.156-.9-.619-1.242-1.481-1.092a1.5,1.5,0,0,0-1.261,1.145l-.618-.4A2.215,2.215,0,0,1,51,54.5a1.866,1.866,0,0,1,2.461,1.615l.6,3.449.614-.106.139.791Zm-1.2-1.713-.161-.922-1.123.2c-.946.165-1.3.567-1.2,1.159l.058.33c.106.615.57.826,1.208.715A1.374,1.374,0,0,0,52.979,58.645Z"/>
    <path d="M57.253,59.821a.809.809,0,0,1-1.083-.759l-.764-4.384-.9.156-.139-.791.533-.093c.354-.061.415-.267.353-.622l-.2-1.134.815-.141.293,1.677,1.182-.207.138.791-1.181.207.787,4.514,1.123-.2.138.791Z"/>
    <path d="M58.79,56.411c-.395-2.267.507-3.374,1.937-3.623s2.535.506,2.931,2.774l.04.225-3.911.683.068.389c.208,1.193.89,1.684,1.847,1.517a1.627,1.627,0,0,0,1.433-1.347l.693.343a2.34,2.34,0,0,1-1.988,1.8C60.41,59.416,59.187,58.68,58.79,56.411Zm.851-.78.026.153,2.954-.514-.027-.155c-.208-1.193-.8-1.734-1.734-1.571C59.891,53.713,59.432,54.437,59.641,55.631Z"/>
    <path d="M66.5,57.538l.033.189a3.147,3.147,0,0,1-.663,2.2l-.733.129a3.178,3.178,0,0,0,.564-1.584.545.545,0,0,1-.562-.5l-.032-.189c-.069-.39.131-.643.591-.724S66.434,57.147,66.5,57.538Z"/>
    <path d="M69.432,49.2l2.588-.451c1.9-.332,3.208.732,3.709,3.6s-.368,4.312-2.27,4.644l-2.588.451Zm3.883,6.968c1.181-.206,1.824-1.2,1.558-2.719L74.552,51.6c-.267-1.524-1.206-2.237-2.388-2.031l-1.642.286,1.15,6.593Z"/>
    <path d="M76.452,48.168l-.033-.189c-.054-.307.081-.514.471-.583s.586.082.64.389l.033.189c.053.307-.081.513-.471.581S76.506,48.476,76.452,48.168Zm.449,1.943.9-.157,1.065,6.1-.9.157Z"/>
    <path d="M79.963,54.812l.535-.63a1.862,1.862,0,0,0,1.743.645c.709-.124,1.095-.568.979-1.229-.093-.533-.375-.825-1.118-.828l-.475,0c-1.207-.008-1.868-.38-2.052-1.432-.216-1.241.494-1.912,1.64-2.111a2.266,2.266,0,0,1,2.126.6l-.485.633a1.636,1.636,0,0,0-1.508-.479c-.721.125-1.016.531-.9,1.168.1.591.441.788,1.147.786l.475,0c1.28.006,1.847.468,2.01,1.4a1.81,1.81,0,0,1-1.7,2.245A2.569,2.569,0,0,1,79.963,54.812Z"/>
    <path d="M87.054,54.62a.808.808,0,0,1-1.082-.76l-.765-4.383-.9.156-.139-.791.531-.093c.355-.061.416-.268.355-.622l-.2-1.134.815-.141.293,1.677,1.182-.207.137.791-1.181.207.788,4.514,1.122-.2.139.791Z"/>
    <path d="M89.584,54.179l-1.063-6.1.9-.157.2,1.135.119-.022a1.483,1.483,0,0,1,1.3-1.4l.33-.058.16.91-.591.1c-.851.148-1.291.627-1.16,1.371l.707,4.05Z"/>
    <path d="M92,45.455l-.033-.188c-.054-.308.081-.515.471-.583s.587.081.64.388l.034.189c.053.307-.081.513-.472.581S92.05,45.763,92,45.455Zm.45,1.943.9-.157,1.064,6.1-.9.157Z"/>
    <path d="M95.259,50.047c-.4-2.268.353-3.348,1.865-3.611A2.143,2.143,0,0,1,99.5,47.47l-.678.508a1.326,1.326,0,0,0-1.554-.74c-.992.173-1.352.832-1.144,2.027l.215,1.228c.208,1.193.77,1.692,1.762,1.519a1.519,1.519,0,0,0,1.341-1.318l.742.345a2.281,2.281,0,0,1-1.942,1.775C96.725,53.078,95.655,52.315,95.259,50.047Z"/>
    <path d="M102.8,51.872a.809.809,0,0,1-1.083-.76l-.765-4.383-.9.156-.139-.791.532-.093c.355-.062.416-.268.354-.622l-.2-1.134.815-.141.293,1.677,1.182-.207.138.791-1.181.207.787,4.514,1.123-.2.138.791Z"/>
  </g>
  <polygon points="41.789 69.717 161.879 154.118 246.28 34.028 41.789 69.717" fill="#c13889"/>
  <g>
    <path d="M26.65,114.7v-6.976h1.429v5.727h2.369V114.7Z"/>
    <path d="M30.981,112.079c0-1.85.769-2.749,2.228-2.749s2.229.9,2.229,2.749v.34h-3v.329a.929.929,0,0,0,1.008.97,1.379,1.379,0,0,0,1.17-.659l.709.829a2.352,2.352,0,0,1-1.978.929C31.909,114.817,30.981,113.907,30.981,112.079Zm1.459-.8v.32h1.539v-.32c0-.6-.26-.9-.77-.9S32.44,110.68,32.44,111.279Z"/>
    <path d="M36.61,110.539h-.661V109.45h.661v-.62c0-1.039.46-1.528,1.428-1.528h.92v1.089h-.949v1.059h.949v1.089h-.949V114.7h-1.4Z"/>
    <path d="M41.389,114.7c-.959,0-1.369-.41-1.369-1.339v-2.819h-.66V109.45h.32c.37,0,.479-.15.479-.51v-.909h1.26v1.419h.919v1.089h-.919v3.068h.82v1.09Z"/>
    <path d="M42.93,112.318V110.97h2.7v1.348Z"/>
    <path d="M46.69,114.7V109.45h1.4v1.119h.16c.07-.6.36-1.119,1.059-1.119h.25v1.419H49.2c-.759,0-1.109.18-1.109.77V114.7Z"/>
    <path d="M50.24,108.121v-.22c0-.42.25-.69.819-.69s.82.27.82.69v.22c0,.42-.25.69-.82.69S50.24,108.541,50.24,108.121Zm.12,1.329h1.4V114.7h-1.4Z"/>
    <path d="M54.808,116.816c-1.719,0-2.259-.46-2.259-1.229,0-.51.32-.81.9-.9v-.21a.824.824,0,0,1-.719-.89c0-.49.429-.73.889-.84v-.14a1.512,1.512,0,0,1-.839-1.508c0-1.1.6-1.77,2.048-1.77a2.579,2.579,0,0,1,.8.13v-.189c0-.531.27-.781.73-.781h.749v1.05h-1.06v.16a1.407,1.407,0,0,1,.84,1.4c0,1.088-.59,1.749-2.059,1.749a3.816,3.816,0,0,1-.88-.1.6.6,0,0,0-.159.45c0,.26.15.4.549.4h1.409c1.19,0,1.65.549,1.65,1.509C57.4,116.206,56.837,116.816,54.808,116.816Zm.57-2.029H53.749a.907.907,0,0,0-.14.5c0,.39.23.59.96.59h.559c.73,0,.959-.2.959-.59C56.087,114.967,55.888,114.787,55.378,114.787Zm.21-3.618v-.159c0-.49-.22-.75-.76-.75s-.759.26-.759.75v.159c0,.49.219.75.759.75S55.588,111.659,55.588,111.169Z"/>
    <path d="M57.97,107.3h1.4v3.038h.161a1.253,1.253,0,0,1,1.239-1.01c.93,0,1.439.68,1.439,1.8V114.7h-1.4v-3.3c0-.629-.2-.929-.65-.929a.732.732,0,0,0-.79.739V114.7h-1.4Z"/>
    <path d="M64.989,114.7c-.959,0-1.37-.41-1.37-1.339v-2.819h-.66V109.45h.321c.37,0,.479-.15.479-.51v-.909h1.26v1.419h.919v1.089h-.919v3.068h.819v1.09Z"/>
    <path d="M70.529,114.7c-.96,0-1.371-.41-1.371-1.339v-2.819H68.5V109.45h.32c.37,0,.48-.15.48-.51v-.909h1.259v1.419h.92v1.089h-.92v3.068h.819v1.09Z"/>
    <path d="M72.209,108.121v-.22c0-.42.25-.69.82-.69s.819.27.819.69v.22c0,.42-.25.69-.819.69S72.209,108.541,72.209,108.121Zm.12,1.329h1.4V114.7h-1.4Z"/>
    <path d="M76.308,114.7c-.969,0-1.359-.429-1.359-1.319V107.3h1.4v6.3h.59v1.09Z"/>
    <path d="M79.288,114.7c-.959,0-1.369-.41-1.369-1.339v-2.819h-.66V109.45h.32c.37,0,.48-.15.48-.51v-.909h1.26v1.419h.919v1.089h-.919v3.068h.819v1.09Z"/>
    <path d="M26.73,121.54h.76v.84h.1a1.237,1.237,0,0,1,1.3-.96c1.229,0,1.879,1.04,1.879,2.7s-.65,2.7-1.879,2.7a1.237,1.237,0,0,1-1.3-.96h-.1V128.7h-.76Zm3.218,3.1V123.6c0-.94-.45-1.5-1.29-1.5a1.064,1.064,0,0,0-1.168.979v2.079a1.064,1.064,0,0,0,1.168.98C29.5,126.138,29.948,125.578,29.948,124.639Z"/>
    <path d="M31.619,124.119c0-1.919.9-2.7,2.11-2.7s2.108.78,2.108,2.7-.9,2.7-2.108,2.7S31.619,126.038,31.619,124.119Zm3.4.52V123.6c0-1.009-.47-1.5-1.289-1.5s-1.289.49-1.289,1.5v1.04c0,1.008.469,1.5,1.289,1.5S35.018,125.647,35.018,124.639Z"/>
    <path d="M37.789,126.7c-.54,0-.779-.24-.779-.779V119.3h.759v6.725h.65v.67Z"/>
    <path d="M39.39,119.881v-.16c0-.26.14-.409.47-.409s.469.149.469.409v.16c0,.26-.139.41-.469.41S39.39,120.141,39.39,119.881Zm.09,1.659h.76V126.7h-.76Z"/>
    <path d="M42.8,126.7c-.54,0-.779-.24-.779-.779V122.21h-.76v-.67h.449c.3,0,.38-.16.38-.46v-.959h.69v1.419h1v.67h-1v3.817h.95v.67Z"/>
    <path d="M44.849,119.881v-.16c0-.26.141-.409.47-.409s.469.149.469.409v.16c0,.26-.139.41-.469.41S44.849,120.141,44.849,119.881Zm.091,1.659H45.7V126.7H44.94Z"/>
    <path d="M46.869,124.119c0-1.919.77-2.7,2.049-2.7a1.788,1.788,0,0,1,1.8,1.189l-.63.321a1.1,1.1,0,0,0-1.17-.83c-.839,0-1.228.49-1.228,1.5v1.04c0,1.008.389,1.5,1.228,1.5a1.266,1.266,0,0,0,1.29-.89l.56.39a1.9,1.9,0,0,1-1.85,1.179C47.639,126.817,46.869,126.038,46.869,124.119Z"/>
    <path d="M55.018,126.7a.664.664,0,0,1-.739-.739v-.1h-.1a1.27,1.27,0,0,1-1.3.96,1.325,1.325,0,0,1-1.489-1.5c0-.96.619-1.559,1.959-1.559h.93v-.57c0-.759-.331-1.109-1.06-1.109a1.248,1.248,0,0,0-1.2.76l-.45-.42a1.847,1.847,0,0,1,1.678-.99c1.16,0,1.789.58,1.789,1.679v2.918h.521v.67Zm-.739-1.579v-.779h-.951c-.8,0-1.149.279-1.149.779v.28c0,.52.351.759.89.759A1.144,1.144,0,0,0,54.279,125.118Z"/>
    <path d="M57.368,126.7c-.539,0-.779-.24-.779-.779V119.3h.76v6.725H58v.67Z"/>
    <path d="M61.958,126.7c-.539,0-.779-.24-.779-.779V119.3h.76v6.725h.649v.67Z"/>
    <path d="M63.3,124.119c0-1.919.9-2.7,2.109-2.7s2.009.78,2.009,2.7v.19H64.109v.33c0,1.008.49,1.508,1.3,1.508a1.356,1.356,0,0,0,1.37-.9l.519.38a1.951,1.951,0,0,1-1.889,1.189C64.2,126.817,63.3,126.038,63.3,124.119Zm.81-.52v.13h2.5v-.13c0-1.009-.41-1.539-1.2-1.539C64.589,122.06,64.109,122.59,64.109,123.6Z"/>
    <path d="M71.857,126.7a.664.664,0,0,1-.74-.739v-.1h-.1a1.271,1.271,0,0,1-1.3.96,1.326,1.326,0,0,1-1.489-1.5c0-.96.62-1.559,1.959-1.559h.929v-.57c0-.759-.33-1.109-1.059-1.109a1.247,1.247,0,0,0-1.2.76l-.45-.42a1.848,1.848,0,0,1,1.679-.99c1.159,0,1.789.58,1.789,1.679v2.918h.52v.67Zm-.74-1.579v-.779h-.949c-.8,0-1.149.279-1.149.779v.28c0,.52.349.759.889.759A1.143,1.143,0,0,0,71.117,125.118Z"/>
    <path d="M73.429,126.7V121.54h.76v.84h.1a1.242,1.242,0,0,1,1.32-.96c.92,0,1.479.62,1.479,1.919V126.7h-.76v-3.308c0-.82-.339-1.28-1.039-1.28a1.036,1.036,0,0,0-1.1,1.071V126.7Z"/>
    <path d="M78.469,119.881v-.16c0-.26.14-.409.47-.409s.469.149.469.409v.16c0,.26-.139.41-.469.41S78.469,120.141,78.469,119.881Zm.09,1.659h.76V126.7h-.76Z"/>
    <path d="M80.839,126.7V121.54H81.6v.84h.1a1.242,1.242,0,0,1,1.32-.96c.919,0,1.478.62,1.478,1.919V126.7h-.758v-3.308c0-.82-.34-1.28-1.04-1.28a1.037,1.037,0,0,0-1.1,1.071V126.7Z"/>
    <path d="M87.638,128.816c-1.48,0-2.06-.45-2.06-1.279a.9.9,0,0,1,.75-.96v-.139a.767.767,0,0,1-.429-.7.79.79,0,0,1,.789-.83v-.11a1.642,1.642,0,0,1-.849-1.589,1.622,1.622,0,0,1,1.769-1.779,2.134,2.134,0,0,1,.869.17v-.18c0-.39.16-.55.55-.55h.689v.67h-.889v.28a1.736,1.736,0,0,1,.549,1.389,1.621,1.621,0,0,1-1.768,1.779,2.541,2.541,0,0,1-.49-.05.64.64,0,0,0-.57.58c0,.259.18.4.6.4h1.13c1.159,0,1.629.479,1.629,1.359C89.907,128.366,89.177,128.816,87.638,128.816Zm.629-2.178H86.7a.7.7,0,0,0-.419.709c0,.519.309.84,1.008.84h.661c.819,0,1.249-.26,1.249-.86C89.2,126.877,88.937,126.638,88.267,126.638Zm.33-3.249v-.369a.99.99,0,0,0-1.979,0v.369a.99.99,0,0,0,1.979,0Z"/>
  </g>
  <g>
    <path d="M23.44,299.259c0-2.609,1.13-3.657,2.8-3.657a2.3,2.3,0,0,1,2.377,1.628l-1.239.64c-.149-.6-.379-1.01-1.138-1.01-.791,0-1.28.48-1.28,1.44v1.819c0,.959.489,1.439,1.28,1.439.759,0,1.039-.48,1.218-1.079l1.18.679a2.415,2.415,0,0,1-2.4,1.659C24.57,302.817,23.44,301.868,23.44,299.259Z"/>
    <path d="M29.2,300.079c0-1.85.77-2.749,2.229-2.749s2.229.9,2.229,2.749-.769,2.738-2.229,2.738S29.2,301.928,29.2,300.079Zm3,.73v-1.47c0-.6-.26-.9-.77-.9s-.77.3-.77.9v1.47c0,.6.26.9.77.9S32.2,301.408,32.2,300.809Z"/>
    <path d="M35.939,302.7c-.97,0-1.36-.429-1.36-1.319V295.3h1.4v6.305h.59v1.09Z"/>
    <path d="M37.05,300.079c0-1.85.77-2.749,2.229-2.749s2.228.9,2.228,2.749-.769,2.738-2.228,2.738S37.05,301.928,37.05,300.079Zm3,.73v-1.47c0-.6-.26-.9-.769-.9s-.77.3-.77.9v1.47c0,.6.26.9.77.9S40.048,301.408,40.048,300.809Z"/>
    <path d="M42.43,302.7V297.45h1.4v1.119h.161c.07-.6.36-1.119,1.059-1.119h.25v1.419h-.36c-.759,0-1.11.18-1.11.77V302.7Z"/>
    <path d="M23.76,314.7V309.54h.759v.96h.1a1.238,1.238,0,0,1,1.269-.96h.28v.77h-.5c-.72,0-1.149.33-1.149.96V314.7Z"/>
    <path d="M30.268,314.7a.664.664,0,0,1-.739-.739v-.1h-.1a1.27,1.27,0,0,1-1.3.96,1.325,1.325,0,0,1-1.489-1.5c0-.96.619-1.559,1.959-1.559h.93v-.57c0-.759-.331-1.109-1.06-1.109a1.248,1.248,0,0,0-1.2.76l-.45-.42a1.847,1.847,0,0,1,1.678-.99c1.16,0,1.789.58,1.789,1.679v2.918h.521v.67Zm-.739-1.579v-.779h-.951c-.8,0-1.149.279-1.149.779v.28c0,.52.351.759.89.759A1.144,1.144,0,0,0,29.529,313.118Z"/>
    <path d="M31.49,312.119c0-1.919.769-2.7,2.048-2.7a1.788,1.788,0,0,1,1.8,1.189l-.63.321a1.1,1.1,0,0,0-1.17-.83c-.839,0-1.228.49-1.228,1.5v1.04c0,1.008.389,1.5,1.228,1.5a1.266,1.266,0,0,0,1.29-.89l.56.39a1.9,1.9,0,0,1-1.85,1.179C32.259,314.817,31.49,314.038,31.49,312.119Z"/>
    <path d="M35.959,312.119c0-1.919.9-2.7,2.11-2.7s2.008.78,2.008,2.7v.19H36.769v.33c0,1.008.49,1.508,1.3,1.508a1.355,1.355,0,0,0,1.369-.9l.519.38a1.95,1.95,0,0,1-1.888,1.189C36.859,314.817,35.959,314.038,35.959,312.119Zm.81-.52v.13h2.5v-.13c0-1.009-.41-1.539-1.2-1.539C37.249,310.06,36.769,310.59,36.769,311.6Z"/>
    <path d="M40.63,316.206,43,307.3h.67l-2.369,8.9Z"/>
    <path d="M44.049,312.119c0-1.919.9-2.7,2.109-2.7s2.009.78,2.009,2.7v.19H44.859v.33c0,1.008.49,1.508,1.3,1.508a1.356,1.356,0,0,0,1.37-.9l.519.38a1.951,1.951,0,0,1-1.889,1.189C44.948,314.817,44.049,314.038,44.049,312.119Zm.81-.52v.13h2.5v-.13c0-1.009-.41-1.539-1.2-1.539C45.339,310.06,44.859,310.59,44.859,311.6Z"/>
    <path d="M50.389,314.7c-.54,0-.779-.24-.779-.779V310.21h-.76v-.67H49.3c.3,0,.38-.16.38-.46v-.959h.689v1.419h1v.67h-1v3.817h.951v.67Z"/>
    <path d="M52.53,307.3h.758v3.078h.1a1.24,1.24,0,0,1,1.319-.96c.919,0,1.479.62,1.479,1.919V314.7h-.759v-3.308c0-.82-.34-1.28-1.04-1.28a1.038,1.038,0,0,0-1.1,1.071V314.7H52.53Z"/>
    <path d="M57.659,314.7V309.54h.759v.84h.1a1.24,1.24,0,0,1,1.319-.96c.919,0,1.479.62,1.479,1.919V314.7h-.759v-3.308c0-.82-.34-1.28-1.04-1.28a1.037,1.037,0,0,0-1.1,1.071V314.7Z"/>
    <path d="M62.7,307.881v-.16c0-.26.141-.409.47-.409s.47.149.47.409v.16c0,.26-.14.41-.47.41S62.7,308.141,62.7,307.881Zm.091,1.659h.759V314.7h-.759Z"/>
    <path d="M64.719,312.119c0-1.919.77-2.7,2.049-2.7a1.789,1.789,0,0,1,1.8,1.189l-.63.321a1.1,1.1,0,0,0-1.17-.83c-.839,0-1.229.49-1.229,1.5v1.04c0,1.008.39,1.5,1.229,1.5a1.266,1.266,0,0,0,1.29-.89l.559.39a1.9,1.9,0,0,1-1.849,1.179C65.489,314.817,64.719,314.038,64.719,312.119Z"/>
    <path d="M69.519,307.881v-.16c0-.26.139-.409.47-.409s.469.149.469.409v.16c0,.26-.139.41-.469.41S69.519,308.141,69.519,307.881Zm.09,1.659h.759V314.7h-.759Z"/>
    <path d="M72.928,314.7c-.539,0-.779-.24-.779-.779V310.21h-.76v-.67h.45c.3,0,.38-.16.38-.46v-.959h.689v1.419h1v.67h-1v3.817h.95v.67Z"/>
    <path d="M77.917,309.54h.74l-2.04,6.477c-.169.54-.339.679-.919.679h-.559v-.67h.789l.3-1.048-1.709-5.438h.76l.789,2.6.48,1.888h.1l.479-1.888Z"/>
    <path d="M80.048,314.147v.161a2.634,2.634,0,0,1-.859,1.709h-.62a2.661,2.661,0,0,0,.69-1.22.454.454,0,0,1-.391-.489v-.161c0-.33.2-.509.59-.509S80.048,313.817,80.048,314.147Z"/>
    <path d="M83.229,312.119c0-1.919.9-2.7,2.108-2.7s2.11.78,2.11,2.7-.9,2.7-2.11,2.7S83.229,314.038,83.229,312.119Zm3.4.52V311.6c0-1.009-.47-1.5-1.29-1.5s-1.289.49-1.289,1.5v1.04c0,1.008.47,1.5,1.289,1.5S86.627,313.647,86.627,312.639Z"/>
    <path d="M88.618,314.7V309.54h.76v.96h.1a1.237,1.237,0,0,1,1.269-.96h.281v.77h-.5c-.72,0-1.15.33-1.15.96V314.7Z"/>
    <path d="M94.876,313.857h-.1a1.238,1.238,0,0,1-1.3.96c-1.23,0-1.879-1.04-1.879-2.7s.649-2.7,1.879-2.7a1.238,1.238,0,0,1,1.3.96h.1V307.3h.76V314.7h-.76Zm0-.7v-2.079a1.065,1.065,0,0,0-1.169-.979c-.84,0-1.289.559-1.289,1.5v1.04c0,.939.449,1.5,1.289,1.5A1.065,1.065,0,0,0,94.876,313.158Z"/>
    <path d="M96.808,312.119c0-1.919.9-2.7,2.109-2.7s2.009.78,2.009,2.7v.19H97.617v.33c0,1.008.491,1.508,1.3,1.508a1.354,1.354,0,0,0,1.369-.9l.52.38a1.951,1.951,0,0,1-1.889,1.189C97.707,314.817,96.808,314.038,96.808,312.119Zm.809-.52v.13h2.5v-.13c0-1.009-.41-1.539-1.2-1.539C98.1,310.06,97.617,310.59,97.617,311.6Z"/>
    <path d="M102.109,314.7V309.54h.758v.96h.1a1.238,1.238,0,0,1,1.269-.96h.28v.77h-.5c-.72,0-1.15.33-1.15.96V314.7Z"/>
    <path d="M105.058,312.119c0-1.919.9-2.7,2.109-2.7s2.009.78,2.009,2.7v.19h-3.309v.33c0,1.008.491,1.508,1.3,1.508a1.354,1.354,0,0,0,1.369-.9l.52.38a1.951,1.951,0,0,1-1.889,1.189C105.957,314.817,105.058,314.038,105.058,312.119Zm.809-.52v.13h2.5v-.13c0-1.009-.41-1.539-1.2-1.539C106.348,310.06,105.867,310.59,105.867,311.6Z"/>
    <path d="M113.316,313.857h-.1a1.236,1.236,0,0,1-1.3.96c-1.229,0-1.879-1.04-1.879-2.7s.65-2.7,1.879-2.7a1.236,1.236,0,0,1,1.3.96h.1V307.3h.759V314.7h-.759Zm0-.7v-2.079a1.065,1.065,0,0,0-1.169-.979c-.84,0-1.289.559-1.289,1.5v1.04c0,.939.449,1.5,1.289,1.5A1.065,1.065,0,0,0,113.316,313.158Z"/>
    <path d="M117.718,307.3h.759v3.078h.1a1.237,1.237,0,0,1,1.3-.96c1.23,0,1.879,1.04,1.879,2.7s-.649,2.7-1.879,2.7a1.237,1.237,0,0,1-1.3-.96h-.1v.84h-.759Zm3.218,5.337V311.6c0-.94-.45-1.5-1.289-1.5a1.066,1.066,0,0,0-1.17.979v2.079a1.066,1.066,0,0,0,1.17.98C120.486,314.138,120.936,313.578,120.936,312.639Z"/>
    <path d="M125.7,309.54h.739l-2.039,6.477c-.17.54-.34.679-.919.679h-.56v-.67h.789l.3-1.048L122.3,309.54h.76l.789,2.6.48,1.888h.1l.48-1.888Z"/>
    <path d="M129.528,309.54h.758v.84h.1a1.236,1.236,0,0,1,1.3-.96c1.229,0,1.879,1.04,1.879,2.7s-.65,2.7-1.879,2.7a1.236,1.236,0,0,1-1.3-.96h-.1V316.7h-.758Zm3.217,3.1V311.6c0-.94-.45-1.5-1.289-1.5a1.066,1.066,0,0,0-1.17.979v2.079a1.066,1.066,0,0,0,1.17.98C132.295,314.138,132.745,313.578,132.745,312.639Z"/>
    <path d="M134.417,312.119c0-1.919.9-2.7,2.11-2.7s2.008.78,2.008,2.7v.19h-3.308v.33c0,1.008.49,1.508,1.3,1.508a1.355,1.355,0,0,0,1.369-.9l.519.38a1.95,1.95,0,0,1-1.888,1.189C135.317,314.817,134.417,314.038,134.417,312.119Zm.81-.52v.13h2.5v-.13c0-1.009-.41-1.539-1.2-1.539C135.707,310.06,135.227,310.59,135.227,311.6Z"/>
    <path d="M139.717,314.7V309.54h.76v.96h.1a1.239,1.239,0,0,1,1.27-.96h.28v.77h-.5c-.719,0-1.149.33-1.149.96V314.7Z"/>
    <path d="M142.667,312.119c0-1.919.77-2.7,2.049-2.7a1.787,1.787,0,0,1,1.8,1.189l-.63.321a1.1,1.1,0,0,0-1.169-.83c-.84,0-1.229.49-1.229,1.5v1.04c0,1.008.389,1.5,1.229,1.5a1.265,1.265,0,0,0,1.289-.89l.56.39a1.9,1.9,0,0,1-1.849,1.179C143.437,314.817,142.667,314.038,142.667,312.119Z"/>
    <path d="M147.137,312.119c0-1.919.9-2.7,2.109-2.7s2.009.78,2.009,2.7v.19h-3.308v.33c0,1.008.49,1.508,1.3,1.508a1.354,1.354,0,0,0,1.369-.9l.52.38a1.951,1.951,0,0,1-1.889,1.189C148.036,314.817,147.137,314.038,147.137,312.119Zm.81-.52v.13h2.5v-.13c0-1.009-.411-1.539-1.2-1.539C148.427,310.06,147.947,310.59,147.947,311.6Z"/>
    <path d="M152.438,314.7V309.54h.759v.84h.1a1.24,1.24,0,0,1,1.319-.96c.919,0,1.479.62,1.479,1.919V314.7h-.759v-3.308c0-.82-.34-1.28-1.04-1.28a1.037,1.037,0,0,0-1.1,1.071V314.7Z"/>
    <path d="M158.607,314.7c-.54,0-.78-.24-.78-.779V310.21h-.759v-.67h.449c.3,0,.38-.16.38-.46v-.959h.689v1.419h1v.67h-1v3.817h.95v.67Z"/>
    <path d="M164.005,314.7a.664.664,0,0,1-.739-.739v-.1h-.1a1.27,1.27,0,0,1-1.3.96,1.325,1.325,0,0,1-1.489-1.5c0-.96.619-1.559,1.959-1.559h.93v-.57c0-.759-.33-1.109-1.06-1.109a1.248,1.248,0,0,0-1.2.76l-.45-.42a1.848,1.848,0,0,1,1.679-.99c1.16,0,1.789.58,1.789,1.679v2.918h.52v.67Zm-.739-1.579v-.779h-.95c-.8,0-1.15.279-1.15.779v.28c0,.52.351.759.89.759A1.144,1.144,0,0,0,163.266,313.118Z"/>
    <path d="M167.246,316.816c-1.479,0-2.059-.45-2.059-1.279a.9.9,0,0,1,.75-.96v-.139a.766.766,0,0,1-.43-.7.79.79,0,0,1,.789-.83v-.11a1.643,1.643,0,0,1-.848-1.589,1.621,1.621,0,0,1,1.768-1.779,2.134,2.134,0,0,1,.869.17v-.18c0-.39.16-.55.55-.55h.689v.67h-.888v.28a1.739,1.739,0,0,1,.549,1.389,1.622,1.622,0,0,1-1.769,1.779,2.523,2.523,0,0,1-.489-.05.64.64,0,0,0-.57.58c0,.259.179.4.6.4h1.13c1.159,0,1.629.479,1.629,1.359C169.515,316.366,168.785,316.816,167.246,316.816Zm.629-2.178h-1.568a.7.7,0,0,0-.42.709c0,.519.31.84,1.01.84h.659c.819,0,1.249-.26,1.249-.86C168.805,314.877,168.545,314.638,167.875,314.638Zm.33-3.249v-.369a.989.989,0,0,0-1.978,0v.369a.989.989,0,0,0,1.978,0Z"/>
    <path d="M169.947,312.119c0-1.919.9-2.7,2.109-2.7s2.009.78,2.009,2.7v.19h-3.309v.33c0,1.008.49,1.508,1.3,1.508a1.355,1.355,0,0,0,1.369-.9l.52.38a1.952,1.952,0,0,1-1.889,1.189C170.846,314.817,169.947,314.038,169.947,312.119Zm.809-.52v.13h2.5v-.13c0-1.009-.41-1.539-1.2-1.539C171.237,310.06,170.756,310.59,170.756,311.6Z"/>
    <path d="M177.017,312.119c0-1.919.9-2.7,2.108-2.7s2.11.78,2.11,2.7-.9,2.7-2.11,2.7S177.017,314.038,177.017,312.119Zm3.4.52V311.6c0-1.009-.469-1.5-1.29-1.5s-1.289.49-1.289,1.5v1.04c0,1.008.47,1.5,1.289,1.5S180.415,313.647,180.415,312.639Z"/>
    <path d="M182.626,310.21h-.749v-.67h.749v-1.259c0-.679.3-.979.98-.979h.769v.669h-.989v1.569h.989v.67h-.989V314.7h-.76Z"/>
    <path d="M187.086,312.119c0-1.919.9-2.7,2.11-2.7s2.008.78,2.008,2.7v.19H187.9v.33c0,1.008.49,1.508,1.3,1.508a1.355,1.355,0,0,0,1.369-.9l.519.38a1.95,1.95,0,0,1-1.888,1.189C187.986,314.817,187.086,314.038,187.086,312.119Zm.81-.52v.13h2.5v-.13c0-1.009-.41-1.539-1.2-1.539C188.376,310.06,187.9,310.59,187.9,311.6Z"/>
    <path d="M193.166,314.7c-.54,0-.779-.24-.779-.779V307.3h.759v6.725h.65v.67Z"/>
    <path d="M194.506,312.119c0-1.919.9-2.7,2.109-2.7s2.009.78,2.009,2.7v.19h-3.308v.33c0,1.008.49,1.508,1.3,1.508a1.356,1.356,0,0,0,1.37-.9l.519.38a1.951,1.951,0,0,1-1.889,1.189C195.406,314.817,194.506,314.038,194.506,312.119Zm.81-.52v.13h2.5v-.13c0-1.009-.41-1.539-1.2-1.539C195.8,310.06,195.316,310.59,195.316,311.6Z"/>
    <path d="M199.456,312.119c0-1.919.77-2.7,2.049-2.7a1.789,1.789,0,0,1,1.8,1.189l-.63.321a1.1,1.1,0,0,0-1.17-.83c-.839,0-1.228.49-1.228,1.5v1.04c0,1.008.389,1.5,1.228,1.5a1.266,1.266,0,0,0,1.29-.89l.56.39a1.9,1.9,0,0,1-1.85,1.179C200.226,314.817,199.456,314.038,199.456,312.119Z"/>
    <path d="M205.386,314.7c-.54,0-.779-.24-.779-.779V310.21h-.76v-.67h.449c.3,0,.38-.16.38-.46v-.959h.689v1.419h1v.67h-1v3.817h.951v.67Z"/>
    <path d="M207.136,312.119c0-1.919.9-2.7,2.109-2.7s2.109.78,2.109,2.7-.9,2.7-2.109,2.7S207.136,314.038,207.136,312.119Zm3.4.52V311.6c0-1.009-.469-1.5-1.289-1.5s-1.289.49-1.289,1.5v1.04c0,1.008.47,1.5,1.289,1.5S210.534,313.647,210.534,312.639Z"/>
    <path d="M212.527,314.7V309.54h.758v.96h.1a1.238,1.238,0,0,1,1.269-.96h.28v.77h-.5c-.72,0-1.15.33-1.15.96V314.7Z"/>
    <path d="M219.034,314.7a.664.664,0,0,1-.739-.739v-.1h-.1a1.27,1.27,0,0,1-1.3.96,1.325,1.325,0,0,1-1.489-1.5c0-.96.619-1.559,1.958-1.559h.93v-.57c0-.759-.33-1.109-1.059-1.109a1.25,1.25,0,0,0-1.2.76l-.45-.42a1.85,1.85,0,0,1,1.679-.99c1.16,0,1.789.58,1.789,1.679v2.918h.52v.67Zm-.739-1.579v-.779h-.95c-.8,0-1.149.279-1.149.779v.28c0,.52.35.759.889.759A1.144,1.144,0,0,0,218.3,313.118Z"/>
    <path d="M221.635,314.7c-.539,0-.779-.24-.779-.779V310.21h-.76v-.67h.45c.3,0,.38-.16.38-.46v-.959h.689v1.419h1v.67h-1v3.817h.95v.67Z"/>
    <path d="M223.386,312.119c0-1.919.9-2.7,2.109-2.7s2.009.78,2.009,2.7v.19H224.2v.33c0,1.008.49,1.508,1.3,1.508a1.356,1.356,0,0,0,1.37-.9l.519.38a1.951,1.951,0,0,1-1.889,1.189C224.285,314.817,223.386,314.038,223.386,312.119Zm.81-.52v.13h2.5v-.13c0-1.009-.411-1.539-1.2-1.539C224.676,310.06,224.2,310.59,224.2,311.6Z"/>
  </g>
  <g>
    <path d="M191.568,141.7l-.43-1.709H189l-.429,1.709H187.2l1.98-6.976H191l1.979,6.976Zm-1.209-4.468-.221-1.208h-.159l-.221,1.208-.409,1.61h1.439Z"/>
    <path d="M193.79,141.7V136.45h1.4v.89h.16a1.239,1.239,0,0,1,1.22-1.01c.939,0,1.459.68,1.459,1.8V141.7h-1.4v-3.3c0-.629-.2-.929-.649-.929a.732.732,0,0,0-.79.739V141.7Z"/>
    <path d="M201.019,143.816c-1.719,0-2.259-.46-2.259-1.229,0-.51.319-.81.9-.9v-.21a.824.824,0,0,1-.719-.89c0-.49.429-.73.889-.84v-.14a1.512,1.512,0,0,1-.839-1.508c0-1.1.6-1.77,2.048-1.77a2.569,2.569,0,0,1,.8.13v-.189c0-.531.27-.781.73-.781h.75v1.05h-1.06v.16a1.407,1.407,0,0,1,.84,1.4c0,1.088-.59,1.749-2.06,1.749a3.813,3.813,0,0,1-.879-.1.6.6,0,0,0-.16.45c0,.26.151.4.55.4h1.409c1.19,0,1.65.549,1.65,1.509C203.608,143.206,203.048,143.816,201.019,143.816Zm.569-2.029h-1.629a.915.915,0,0,0-.139.5c0,.39.229.59.959.59h.559c.731,0,.96-.2.96-.59C202.3,141.967,202.1,141.787,201.588,141.787Zm.21-3.618v-.159c0-.49-.22-.75-.76-.75s-.758.26-.758.75v.159c0,.49.219.75.758.75S201.8,138.659,201.8,138.169Z"/>
    <path d="M205.538,141.7c-.968,0-1.358-.429-1.358-1.319V134.3h1.4v6.305h.59v1.09Z"/>
    <path d="M206.65,139.079c0-1.85.769-2.749,2.228-2.749s2.23.9,2.23,2.749v.34h-3v.329a.929.929,0,0,0,1.009.97,1.379,1.379,0,0,0,1.169-.659l.71.829a2.356,2.356,0,0,1-1.978.929C207.579,141.817,206.65,140.907,206.65,139.079Zm1.459-.8v.32h1.539v-.32c0-.6-.26-.9-.77-.9S208.109,137.68,208.109,138.279Z"/>
    <path d="M187.76,148.54h.759v.84h.1a1.237,1.237,0,0,1,1.3-.96c1.23,0,1.879,1.04,1.879,2.7s-.649,2.7-1.879,2.7a1.237,1.237,0,0,1-1.3-.96h-.1V155.7h-.759Zm3.218,3.1V150.6c0-.94-.45-1.5-1.289-1.5a1.066,1.066,0,0,0-1.17.979v2.079a1.066,1.066,0,0,0,1.17.98C190.528,153.138,190.978,152.578,190.978,151.639Z"/>
    <path d="M192.65,151.119c0-1.919.9-2.7,2.108-2.7s2.009.78,2.009,2.7v.19h-3.308v.33c0,1.008.489,1.508,1.3,1.508a1.354,1.354,0,0,0,1.369-.9l.521.38a1.953,1.953,0,0,1-1.89,1.189C193.549,153.817,192.65,153.038,192.65,151.119Zm.809-.52v.13h2.5v-.13c0-1.009-.409-1.539-1.2-1.539C193.939,149.06,193.459,149.59,193.459,150.6Z"/>
    <path d="M197.949,153.7V148.54h.76v.96h.1a1.237,1.237,0,0,1,1.269-.96h.281v.77h-.5c-.72,0-1.15.33-1.15.96V153.7Z"/>
    <path d="M200.9,151.119c0-1.919.769-2.7,2.048-2.7a1.786,1.786,0,0,1,1.8,1.189l-.63.321a1.1,1.1,0,0,0-1.169-.83c-.839,0-1.229.49-1.229,1.5v1.04c0,1.008.39,1.5,1.229,1.5a1.266,1.266,0,0,0,1.29-.89l.559.39a1.9,1.9,0,0,1-1.849,1.179C201.669,153.817,200.9,153.038,200.9,151.119Z"/>
    <path d="M205.369,151.119c0-1.919.9-2.7,2.11-2.7s2.009.78,2.009,2.7v.19h-3.309v.33c0,1.008.49,1.508,1.3,1.508a1.355,1.355,0,0,0,1.369-.9l.519.38a1.95,1.95,0,0,1-1.888,1.189C206.269,153.817,205.369,153.038,205.369,151.119Zm.81-.52v.13h2.5v-.13c0-1.009-.41-1.539-1.2-1.539C206.659,149.06,206.179,149.59,206.179,150.6Z"/>
    <path d="M210.669,153.7V148.54h.76v.84h.1a1.24,1.24,0,0,1,1.319-.96c.92,0,1.479.62,1.479,1.919V153.7h-.759v-3.308c0-.82-.34-1.28-1.039-1.28a1.037,1.037,0,0,0-1.1,1.071V153.7Z"/>
    <path d="M216.838,153.7c-.539,0-.779-.24-.779-.779V149.21h-.76v-.67h.45c.3,0,.38-.16.38-.46v-.959h.69v1.419h1v.67h-1v3.817h.949v.67Z"/>
    <path d="M220.749,151.119c0-1.919.9-2.7,2.109-2.7s2.109.78,2.109,2.7-.9,2.7-2.109,2.7S220.749,153.038,220.749,151.119Zm3.4.52V150.6c0-1.009-.47-1.5-1.29-1.5s-1.289.49-1.289,1.5v1.04c0,1.008.469,1.5,1.289,1.5S224.148,152.647,224.148,151.639Z"/>
    <path d="M226.359,149.21h-.749v-.67h.749v-1.259c0-.679.3-.979.979-.979h.77v.669h-.99v1.569h.99v.67h-.99V153.7h-.759Z"/>
    <path d="M232.188,153.7l-1.618-5.157h.758l.79,2.6.48,1.888h.1l.48-1.888.789-2.6h.74l-1.619,5.157Z"/>
    <path d="M235.209,151.119c0-1.919.9-2.7,2.109-2.7s2.109.78,2.109,2.7-.9,2.7-2.109,2.7S235.209,153.038,235.209,151.119Zm3.4.52V150.6c0-1.009-.47-1.5-1.29-1.5s-1.289.49-1.289,1.5v1.04c0,1.008.469,1.5,1.289,1.5S238.608,152.647,238.608,151.639Z"/>
    <path d="M241.608,153.7c-.539,0-.78-.24-.78-.779V149.21h-.759v-.67h.45c.3,0,.38-.16.38-.46v-.959h.689v1.419h1v.67h-1v3.817h.949v.67Z"/>
    <path d="M243.359,151.119c0-1.919.9-2.7,2.109-2.7s2.009.78,2.009,2.7v.19h-3.309v.33c0,1.008.49,1.508,1.3,1.508a1.355,1.355,0,0,0,1.369-.9l.52.38a1.952,1.952,0,0,1-1.889,1.189C244.258,153.817,243.359,153.038,243.359,151.119Zm.809-.52v.13h2.5v-.13c0-1.009-.41-1.539-1.2-1.539C244.649,149.06,244.168,149.59,244.168,150.6Z"/>
    <path d="M248.219,152.838l.53-.44a1.556,1.556,0,0,0,1.339.78c.6,0,.98-.31.98-.87,0-.45-.19-.73-.8-.839l-.39-.071c-.989-.179-1.479-.58-1.479-1.468,0-1.05.679-1.5,1.649-1.5a1.89,1.89,0,0,1,1.659.8l-.489.451a1.362,1.362,0,0,0-1.17-.611c-.609,0-.909.29-.909.83,0,.5.25.71.829.81l.39.07c1.049.19,1.449.65,1.449,1.439a1.508,1.508,0,0,1-1.719,1.6A2.146,2.146,0,0,1,248.219,152.838Z"/>
    <path d="M255.169,153.7V148.54h.759v.96h.1a1.236,1.236,0,0,1,1.268-.96h.28v.77h-.5c-.719,0-1.149.33-1.149.96V153.7Z"/>
    <path d="M258.118,151.119c0-1.919.9-2.7,2.11-2.7s2.009.78,2.009,2.7v.19h-3.309v.33c0,1.008.49,1.508,1.3,1.508a1.355,1.355,0,0,0,1.369-.9l.519.38a1.95,1.95,0,0,1-1.888,1.189C259.018,153.817,258.118,153.038,258.118,151.119Zm.81-.52v.13h2.5v-.13c0-1.009-.41-1.539-1.2-1.539C259.408,149.06,258.928,149.59,258.928,150.6Z"/>
    <path d="M263.069,151.119c0-1.919.769-2.7,2.048-2.7a1.786,1.786,0,0,1,1.8,1.189l-.63.321a1.1,1.1,0,0,0-1.169-.83c-.839,0-1.229.49-1.229,1.5v1.04c0,1.008.39,1.5,1.229,1.5a1.266,1.266,0,0,0,1.29-.89l.559.39a1.9,1.9,0,0,1-1.849,1.179C263.838,153.817,263.069,153.038,263.069,151.119Z"/>
    <path d="M267.538,151.119c0-1.919.9-2.7,2.11-2.7s2.009.78,2.009,2.7v.19h-3.309v.33c0,1.008.49,1.508,1.3,1.508a1.355,1.355,0,0,0,1.369-.9l.519.38a1.95,1.95,0,0,1-1.888,1.189C268.438,153.817,267.538,153.038,267.538,151.119Zm.81-.52v.13h2.5v-.13c0-1.009-.41-1.539-1.2-1.539C268.828,149.06,268.348,149.59,268.348,150.6Z"/>
    <path d="M272.748,146.881v-.16c0-.26.141-.409.47-.409s.47.149.47.409v.16c0,.26-.14.41-.47.41S272.748,147.141,272.748,146.881Zm.091,1.659h.759V153.7h-.759Z"/>
    <path d="M276.138,153.7l-1.619-5.157h.76l.789,2.6.48,1.888h.1l.479-1.888.79-2.6h.74l-1.62,5.157Z"/>
    <path d="M279.158,151.119c0-1.919.9-2.7,2.11-2.7s2.009.78,2.009,2.7v.19h-3.309v.33c0,1.008.49,1.508,1.3,1.508a1.355,1.355,0,0,0,1.369-.9l.52.38a1.952,1.952,0,0,1-1.889,1.189C280.058,153.817,279.158,153.038,279.158,151.119Zm.81-.52v.13h2.5v-.13c0-1.009-.41-1.539-1.2-1.539C280.448,149.06,279.968,149.59,279.968,150.6Z"/>
    <path d="M287.416,152.857h-.1a1.238,1.238,0,0,1-1.3.96c-1.23,0-1.879-1.04-1.879-2.7s.649-2.7,1.879-2.7a1.238,1.238,0,0,1,1.3.96h.1V146.3h.76v7.4h-.76Zm0-.7v-2.079a1.065,1.065,0,0,0-1.169-.979c-.84,0-1.289.559-1.289,1.5v1.04c0,.939.449,1.5,1.289,1.5A1.065,1.065,0,0,0,287.416,152.158Z"/>
    <path d="M187.76,165.7V160.54h.759v.84h.1a1.19,1.19,0,0,1,1.259-.96,1.3,1.3,0,0,1,1.32.96h.1a1.323,1.323,0,0,1,1.4-.96c.879,0,1.46.62,1.46,1.919V165.7h-.76v-3.308c0-.82-.33-1.28-1-1.28a1.016,1.016,0,0,0-1.06,1.071V165.7h-.759v-3.308c0-.82-.33-1.28-1-1.28a1.016,1.016,0,0,0-1.059,1.071V165.7Z"/>
    <path d="M195.28,163.119c0-1.919.9-2.7,2.109-2.7s2.108.78,2.108,2.7-.9,2.7-2.108,2.7S195.28,165.038,195.28,163.119Zm3.4.52V162.6c0-1.009-.47-1.5-1.289-1.5s-1.289.49-1.289,1.5v1.04c0,1.008.47,1.5,1.289,1.5S198.678,164.647,198.678,163.639Z"/>
    <path d="M200.669,165.7V160.54h.76v.96h.1a1.237,1.237,0,0,1,1.269-.96h.28v.77h-.5c-.719,0-1.149.33-1.149.96V165.7Z"/>
    <path d="M203.619,163.119c0-1.919.9-2.7,2.11-2.7s2.009.78,2.009,2.7v.19h-3.309v.33c0,1.008.49,1.508,1.3,1.508a1.355,1.355,0,0,0,1.369-.9l.519.38a1.95,1.95,0,0,1-1.888,1.189C204.519,165.817,203.619,165.038,203.619,163.119Zm.81-.52v.13h2.5v-.13c0-1.009-.41-1.539-1.2-1.539C204.909,161.06,204.429,161.59,204.429,162.6Z"/>
    <path d="M213.888,164.857h-.1a1.241,1.241,0,0,1-1.319.96c-.92,0-1.479-.62-1.479-1.919V160.54h.759v3.309c0,.819.34,1.279,1.039,1.279a1.036,1.036,0,0,0,1.1-1.069V160.54h.76V165.7h-.76Z"/>
    <path d="M216.169,160.54h.759v.84h.1a1.235,1.235,0,0,1,1.3-.96c1.23,0,1.879,1.04,1.879,2.7s-.649,2.7-1.879,2.7a1.235,1.235,0,0,1-1.3-.96h-.1V167.7h-.759Zm3.218,3.1V162.6c0-.94-.45-1.5-1.289-1.5a1.066,1.066,0,0,0-1.17.979v2.079a1.066,1.066,0,0,0,1.17.98C218.937,165.138,219.387,164.578,219.387,163.639Z"/>
    <path d="M221.409,165.7V160.54h.759v.96h.1a1.237,1.237,0,0,1,1.268-.96h.281v.77h-.5c-.72,0-1.15.33-1.15.96V165.7Z"/>
    <path d="M224.639,158.881v-.16c0-.26.14-.409.47-.409s.469.149.469.409v.16c0,.26-.139.41-.469.41S224.639,159.141,224.639,158.881Zm.09,1.659h.76V165.7h-.76Z"/>
    <path d="M228.678,167.816c-1.48,0-2.06-.45-2.06-1.279a.9.9,0,0,1,.75-.96v-.139a.767.767,0,0,1-.429-.7.79.79,0,0,1,.789-.83v-.11a1.642,1.642,0,0,1-.849-1.589,1.622,1.622,0,0,1,1.769-1.779,2.134,2.134,0,0,1,.869.17v-.18c0-.39.16-.55.55-.55h.689v.67h-.889v.28a1.736,1.736,0,0,1,.549,1.389,1.621,1.621,0,0,1-1.768,1.779,2.541,2.541,0,0,1-.49-.05.64.64,0,0,0-.57.58c0,.259.18.4.6.4h1.13c1.159,0,1.629.479,1.629,1.359C230.947,167.366,230.217,167.816,228.678,167.816Zm.629-2.178h-1.568a.7.7,0,0,0-.42.709c0,.519.309.84,1.009.84h.66c.819,0,1.249-.26,1.249-.86C230.237,165.877,229.977,165.638,229.307,165.638Zm.33-3.249v-.369a.99.99,0,0,0-1.979,0v.369a.99.99,0,0,0,1.979,0Z"/>
    <path d="M231.779,158.3h.759v3.078h.1a1.241,1.241,0,0,1,1.319-.96c.92,0,1.48.62,1.48,1.919V165.7h-.76v-3.308c0-.82-.34-1.28-1.039-1.28a1.037,1.037,0,0,0-1.1,1.071V165.7h-.759Z"/>
    <path d="M237.948,165.7c-.54,0-.78-.24-.78-.779V161.21h-.76v-.67h.451c.3,0,.38-.16.38-.46v-.959h.689v1.419h1v.67h-1v3.817h.949v.67Z"/>
    <path d="M242.048,161.979v-.639h4.2v.639Zm0,1.979v-.64h4.2v.64Z"/>
    <path d="M249.729,165.7V160.54h.759v.84h.1a1.19,1.19,0,0,1,1.259-.96,1.3,1.3,0,0,1,1.319.96h.1a1.323,1.323,0,0,1,1.4-.96c.88,0,1.46.62,1.46,1.919V165.7h-.76v-3.308c0-.82-.33-1.28-1-1.28a1.016,1.016,0,0,0-1.059,1.071V165.7h-.759v-3.308c0-.82-.33-1.28-1-1.28a1.015,1.015,0,0,0-1.059,1.071V165.7Z"/>
    <path d="M257.248,163.119c0-1.919.9-2.7,2.109-2.7s2.109.78,2.109,2.7-.9,2.7-2.109,2.7S257.248,165.038,257.248,163.119Zm3.4.52V162.6c0-1.009-.47-1.5-1.29-1.5s-1.289.49-1.289,1.5v1.04c0,1.008.469,1.5,1.289,1.5S260.647,164.647,260.647,163.639Z"/>
    <path d="M262.638,165.7V160.54h.76v.96h.1a1.239,1.239,0,0,1,1.27-.96h.28v.77h-.5c-.72,0-1.149.33-1.149.96V165.7Z"/>
    <path d="M265.588,163.119c0-1.919.9-2.7,2.109-2.7s2.008.78,2.008,2.7v.19H266.4v.33c0,1.008.489,1.508,1.3,1.508a1.354,1.354,0,0,0,1.369-.9l.52.38a1.951,1.951,0,0,1-1.889,1.189C266.488,165.817,265.588,165.038,265.588,163.119Zm.81-.52v.13h2.5v-.13c0-1.009-.409-1.539-1.2-1.539C266.877,161.06,266.4,161.59,266.4,162.6Z"/>
    <path d="M272.568,164.838l.53-.44a1.555,1.555,0,0,0,1.339.78c.6,0,.979-.31.979-.87,0-.45-.189-.73-.8-.839l-.389-.071c-.989-.179-1.48-.58-1.48-1.468,0-1.05.68-1.5,1.65-1.5a1.891,1.891,0,0,1,1.659.8l-.489.451a1.362,1.362,0,0,0-1.17-.611c-.61,0-.909.29-.909.83,0,.5.25.71.829.81l.389.07c1.05.19,1.45.65,1.45,1.439a1.508,1.508,0,0,1-1.719,1.6A2.144,2.144,0,0,1,272.568,164.838Z"/>
    <path d="M280.246,164.857h-.1a1.242,1.242,0,0,1-1.32.96c-.92,0-1.479-.62-1.479-1.919V160.54h.76v3.309c0,.819.34,1.279,1.039,1.279a1.036,1.036,0,0,0,1.1-1.069V160.54h.76V165.7h-.76Z"/>
    <path d="M282.528,160.54h.759v.84h.1a1.237,1.237,0,0,1,1.3-.96c1.229,0,1.879,1.04,1.879,2.7s-.65,2.7-1.879,2.7a1.237,1.237,0,0,1-1.3-.96h-.1V167.7h-.759Zm3.218,3.1V162.6c0-.94-.45-1.5-1.29-1.5a1.065,1.065,0,0,0-1.169.979v2.079a1.065,1.065,0,0,0,1.169.98C285.3,165.138,285.746,164.578,285.746,163.639Z"/>
    <path d="M287.768,160.54h.759v.84h.1a1.236,1.236,0,0,1,1.3-.96c1.23,0,1.879,1.04,1.879,2.7s-.649,2.7-1.879,2.7a1.236,1.236,0,0,1-1.3-.96h-.1V167.7h-.759Zm3.218,3.1V162.6c0-.94-.451-1.5-1.289-1.5a1.066,1.066,0,0,0-1.17.979v2.079a1.066,1.066,0,0,0,1.17.98C290.535,165.138,290.986,164.578,290.986,163.639Z"/>
    <path d="M292.657,163.119c0-1.919.9-2.7,2.109-2.7s2.109.78,2.109,2.7-.9,2.7-2.109,2.7S292.657,165.038,292.657,163.119Zm3.4.52V162.6c0-1.009-.47-1.5-1.29-1.5s-1.289.49-1.289,1.5v1.04c0,1.008.47,1.5,1.289,1.5S296.056,164.647,296.056,163.639Z"/>
    <path d="M298.047,165.7V160.54h.76v.96h.1a1.237,1.237,0,0,1,1.269-.96h.28v.77h-.5c-.719,0-1.149.33-1.149.96V165.7Z"/>
    <path d="M302.527,165.7c-.54,0-.78-.24-.78-.779V161.21h-.759v-.67h.449c.3,0,.38-.16.38-.46v-.959h.689v1.419h1v.67h-1v3.817h.95v.67Z"/>
  </g>
  <g>
    <path d="M30.4,157.527h-2.32v2.909H26.65v-6.977h1.428v2.829H30.4v-2.829h1.428v6.977H30.4Z"/>
    <path d="M32.82,157.817c0-1.849.769-2.749,2.228-2.749s2.23.9,2.23,2.749v.34h-3v.329a.929.929,0,0,0,1.009.97,1.38,1.38,0,0,0,1.169-.659l.71.829a2.356,2.356,0,0,1-1.978.93C33.749,160.556,32.82,159.646,32.82,157.817Zm1.459-.8v.319h1.539v-.319c0-.6-.26-.9-.77-.9S34.279,156.418,34.279,157.018Z"/>
    <path d="M38.079,153.859v-.219c0-.42.25-.691.82-.691s.82.271.82.691v.219c0,.42-.25.69-.82.69S38.079,154.279,38.079,153.859Zm.12,1.329h1.4v5.248H38.2Z"/>
    <path d="M42.648,162.555c-1.719,0-2.259-.46-2.259-1.23,0-.51.32-.809.9-.9v-.21a.824.824,0,0,1-.719-.89c0-.49.429-.729.889-.84v-.139a1.514,1.514,0,0,1-.84-1.509c0-1.1.6-1.77,2.049-1.77a2.579,2.579,0,0,1,.8.13v-.189c0-.53.27-.78.73-.78h.749v1.049H43.888v.16a1.408,1.408,0,0,1,.839,1.4c0,1.089-.59,1.749-2.059,1.749a3.816,3.816,0,0,1-.88-.1.6.6,0,0,0-.159.451c0,.259.15.4.549.4h1.409c1.19,0,1.65.55,1.65,1.51C45.237,161.944,44.677,162.555,42.648,162.555Zm.57-2.03H41.589a.91.91,0,0,0-.141.5c0,.39.231.59.96.59h.56c.73,0,.959-.2.959-.59C43.927,160.705,43.728,160.525,43.218,160.525Zm.21-3.618v-.159c0-.49-.22-.75-.76-.75s-.76.26-.76.75v.159c0,.49.22.75.76.75S43.428,157.4,43.428,156.907Z"/>
    <path d="M45.809,153.04h1.4v3.038h.16a1.254,1.254,0,0,1,1.24-1.01c.928,0,1.438.68,1.438,1.8v3.569h-1.4v-3.3c0-.63-.2-.93-.651-.93a.732.732,0,0,0-.789.739v3.489h-1.4Z"/>
    <path d="M52.828,160.436c-.959,0-1.369-.411-1.369-1.339v-2.82H50.8v-1.089h.32c.371,0,.48-.15.48-.509v-.909h1.26v1.418h.919v1.089h-.919v3.069h.819v1.09Z"/>
    <path d="M26.8,172.436v-6.977h2.568c1.14,0,1.73.65,1.73,1.989s-.59,1.99-1.73,1.99H27.6v3Zm.8-3.7h1.749c.59,0,.89-.309.89-.959v-.66c0-.649-.3-.959-.89-.959H27.6Z"/>
    <path d="M31.709,169.857c0-1.919.9-2.7,2.11-2.7s2.108.78,2.108,2.7-.9,2.7-2.108,2.7S31.709,171.776,31.709,169.857Zm3.4.52v-1.04c0-1.009-.47-1.5-1.289-1.5s-1.289.49-1.289,1.5v1.04c0,1.009.469,1.5,1.289,1.5S35.108,171.386,35.108,170.377Z"/>
    <path d="M37.1,167.278h.759v.84h.1a1.236,1.236,0,0,1,1.3-.96c1.23,0,1.879,1.04,1.879,2.7s-.649,2.7-1.879,2.7a1.236,1.236,0,0,1-1.3-.96h-.1v2.839H37.1Zm3.218,3.1v-1.04c0-.94-.451-1.5-1.289-1.5a1.066,1.066,0,0,0-1.17.979V170.9a1.065,1.065,0,0,0,1.17.98C39.867,171.876,40.318,171.316,40.318,170.377Z"/>
    <path d="M45.188,171.6h-.1a1.241,1.241,0,0,1-1.319.96c-.92,0-1.48-.62-1.48-1.919v-3.359h.76v3.309c0,.819.34,1.279,1.039,1.279a1.036,1.036,0,0,0,1.1-1.069v-3.519h.76v5.158h-.76Z"/>
    <path d="M48.248,172.436c-.539,0-.779-.241-.779-.78V165.04h.76v6.726h.649v.67Z"/>
    <path d="M53.2,172.436a.665.665,0,0,1-.74-.74v-.1h-.1a1.272,1.272,0,0,1-1.3.96,1.326,1.326,0,0,1-1.489-1.5c0-.96.62-1.56,1.959-1.56h.929v-.569c0-.76-.33-1.11-1.059-1.11a1.25,1.25,0,0,0-1.2.76l-.449-.42a1.848,1.848,0,0,1,1.679-.99c1.159,0,1.789.58,1.789,1.68v2.918h.52v.67Zm-.74-1.58v-.779h-.949c-.8,0-1.149.279-1.149.779v.281c0,.519.349.759.889.759A1.143,1.143,0,0,0,52.457,170.856Z"/>
    <path d="M55.8,172.436c-.54,0-.779-.241-.779-.78v-3.708h-.76v-.67h.449c.3,0,.38-.16.38-.46v-.959h.69v1.419h1v.67h-1v3.818h.95v.67Z"/>
    <path d="M57.849,165.619v-.16c0-.26.14-.409.47-.409s.469.149.469.409v.16c0,.26-.139.41-.469.41S57.849,165.879,57.849,165.619Zm.09,1.659H58.7v5.158h-.759Z"/>
    <path d="M59.868,169.857c0-1.919.9-2.7,2.11-2.7s2.108.78,2.108,2.7-.9,2.7-2.108,2.7S59.868,171.776,59.868,169.857Zm3.4.52v-1.04c0-1.009-.47-1.5-1.289-1.5s-1.289.49-1.289,1.5v1.04c0,1.009.469,1.5,1.289,1.5S63.267,171.386,63.267,170.377Z"/>
    <path d="M65.259,172.436v-5.158h.759v.84h.1a1.242,1.242,0,0,1,1.32-.96c.919,0,1.478.62,1.478,1.919v3.359h-.759v-3.309c0-.819-.339-1.279-1.04-1.279a1.036,1.036,0,0,0-1.1,1.07v3.518Z"/>
    <path d="M72.158,169.857c0-1.919.9-2.7,2.11-2.7s2.108.78,2.108,2.7-.9,2.7-2.108,2.7S72.158,171.776,72.158,169.857Zm3.4.52v-1.04c0-1.009-.47-1.5-1.289-1.5s-1.289.49-1.289,1.5v1.04c0,1.009.469,1.5,1.289,1.5S75.557,171.386,75.557,170.377Z"/>
    <path d="M77.768,167.948h-.749v-.67h.749V166.02c0-.68.3-.98.979-.98h.77v.669h-.989v1.569h.989v.67h-.989v4.488h-.76Z"/>
    <path d="M83.617,172.436c-.539,0-.779-.241-.779-.78v-3.708h-.76v-.67h.451c.3,0,.379-.16.379-.46v-.959h.69v1.419h1v.67h-1v3.818h.949v.67Z"/>
    <path d="M85.758,165.04h.76v3.078h.1a1.242,1.242,0,0,1,1.32-.96c.92,0,1.479.62,1.479,1.919v3.359h-.759v-3.309c0-.819-.34-1.279-1.04-1.279a1.036,1.036,0,0,0-1.1,1.07v3.518h-.76Z"/>
    <path d="M90.538,169.857c0-1.919.9-2.7,2.109-2.7s2.009.78,2.009,2.7v.19H91.348v.33c0,1.009.489,1.509,1.3,1.509a1.355,1.355,0,0,0,1.369-.9l.52.38a1.952,1.952,0,0,1-1.889,1.19C91.438,172.556,90.538,171.776,90.538,169.857Zm.81-.52v.13h2.5v-.13c0-1.009-.409-1.539-1.2-1.539C91.827,167.8,91.348,168.328,91.348,169.337Z"/>
    <path d="M29.688,183.6h-.1a1.237,1.237,0,0,1-1.3.96c-1.229,0-1.879-1.04-1.879-2.7s.65-2.7,1.879-2.7a1.237,1.237,0,0,1,1.3.96h.1V177.04h.76v7.4h-.76Zm0-.7v-2.079a1.065,1.065,0,0,0-1.169-.979c-.84,0-1.29.559-1.29,1.5v1.04c0,.939.45,1.5,1.29,1.5A1.065,1.065,0,0,0,29.688,182.9Z"/>
    <path d="M31.879,177.619v-.16c0-.26.14-.409.47-.409s.47.149.47.409v.16c0,.26-.14.41-.47.41S31.879,177.879,31.879,177.619Zm.09,1.659h.76v5.158h-.76Z"/>
    <path d="M33.81,183.576l.529-.439a1.556,1.556,0,0,0,1.34.779c.6,0,.979-.31.979-.87,0-.449-.19-.73-.8-.839l-.39-.07c-.99-.18-1.479-.58-1.479-1.469,0-1.05.679-1.5,1.649-1.5a1.89,1.89,0,0,1,1.659.8l-.49.45a1.362,1.362,0,0,0-1.169-.61c-.61,0-.91.29-.91.83,0,.5.25.71.83.809l.389.071c1.05.189,1.45.649,1.45,1.438a1.509,1.509,0,0,1-1.719,1.6A2.143,2.143,0,0,1,33.81,183.576Z"/>
    <path d="M39.658,184.436c-.54,0-.779-.241-.779-.78v-3.708h-.76v-.67h.45c.3,0,.379-.16.379-.46v-.959h.69v1.419h1v.67h-1v3.818h.95v.67Z"/>
    <path d="M41.8,184.436v-5.158h.76v.96h.1a1.239,1.239,0,0,1,1.27-.96h.28v.77h-.5c-.719,0-1.149.33-1.149.96v3.428Z"/>
    <path d="M45.029,177.619v-.16c0-.26.14-.409.469-.409s.47.149.47.409v.16c0,.26-.14.41-.47.41S45.029,177.879,45.029,177.619Zm.09,1.659h.759v5.158h-.759Z"/>
    <path d="M47.049,181.857c0-1.919.77-2.7,2.049-2.7a1.787,1.787,0,0,1,1.8,1.19l-.63.32a1.1,1.1,0,0,0-1.169-.83c-.84,0-1.23.49-1.23,1.5v1.04c0,1.009.39,1.5,1.23,1.5a1.265,1.265,0,0,0,1.289-.89l.56.39a1.9,1.9,0,0,1-1.849,1.18C47.819,184.556,47.049,183.776,47.049,181.857Z"/>
    <path d="M52.978,184.436c-.539,0-.78-.241-.78-.78v-3.708h-.759v-.67h.45c.3,0,.38-.16.38-.46v-.959h.689v1.419h1v.67h-1v3.818h.949v.67Z"/>
    <path d="M57.239,184.436v-5.158H58v.96h.1a1.238,1.238,0,0,1,1.269-.96h.281v.77h-.5c-.72,0-1.15.33-1.15.96v3.428Z"/>
    <path d="M60.189,181.857c0-1.919.9-2.7,2.108-2.7s2.009.78,2.009,2.7v.19H61v.33c0,1.009.49,1.509,1.3,1.509a1.354,1.354,0,0,0,1.369-.9l.521.38a1.954,1.954,0,0,1-1.89,1.19C61.088,184.556,60.189,183.776,60.189,181.857Zm.809-.52v.13h2.5v-.13c0-1.009-.409-1.539-1.2-1.539C61.478,179.8,61,180.328,61,181.337Z"/>
    <path d="M66.268,184.436c-.539,0-.779-.241-.779-.78V177.04h.759v6.726h.65v.67Z"/>
    <path d="M71.216,184.436a.665.665,0,0,1-.739-.74v-.1h-.1a1.272,1.272,0,0,1-1.3.96,1.326,1.326,0,0,1-1.489-1.5c0-.96.62-1.56,1.959-1.56h.93v-.569c0-.76-.33-1.11-1.06-1.11a1.248,1.248,0,0,0-1.2.76l-.449-.42a1.846,1.846,0,0,1,1.679-.99c1.159,0,1.789.58,1.789,1.68v2.918h.519v.67Zm-.739-1.58v-.779h-.949c-.8,0-1.15.279-1.15.779v.281c0,.519.35.759.89.759A1.144,1.144,0,0,0,70.477,182.856Z"/>
    <path d="M73.818,184.436c-.54,0-.78-.241-.78-.78v-3.708h-.759v-.67h.449c.3,0,.38-.16.38-.46v-.959H73.8v1.419h1v.67h-1v3.818h.95v.67Z"/>
    <path d="M75.868,177.619v-.16c0-.26.14-.409.47-.409s.47.149.47.409v.16c0,.26-.14.41-.47.41S75.868,177.879,75.868,177.619Zm.09,1.659h.76v5.158h-.76Z"/>
    <path d="M79.257,184.436l-1.618-5.158H78.4l.79,2.6.479,1.889h.1l.48-1.889.789-2.6h.741l-1.62,5.158Z"/>
    <path d="M82.279,181.857c0-1.919.9-2.7,2.108-2.7s2.009.78,2.009,2.7v.19H83.088v.33c0,1.009.489,1.509,1.3,1.509a1.355,1.355,0,0,0,1.369-.9l.521.38a1.954,1.954,0,0,1-1.89,1.19C83.178,184.556,82.279,183.776,82.279,181.857Zm.809-.52v.13h2.5v-.13c0-1.009-.409-1.539-1.2-1.539C83.568,179.8,83.088,180.328,83.088,181.337Z"/>
    <path d="M90.738,184.436c-.54,0-.78-.241-.78-.78v-3.708H89.2v-.67h.45c.3,0,.38-.16.38-.46v-.959h.689v1.419h1v.67h-1v3.818h.95v.67Z"/>
    <path d="M92.489,181.857c0-1.919.9-2.7,2.108-2.7s2.109.78,2.109,2.7-.9,2.7-2.109,2.7S92.489,183.776,92.489,181.857Zm3.4.52v-1.04c0-1.009-.47-1.5-1.29-1.5s-1.289.49-1.289,1.5v1.04c0,1.009.47,1.5,1.289,1.5S95.887,183.386,95.887,182.377Z"/>
    <path d="M27.769,196.436c-.54,0-.779-.241-.779-.78v-3.708h-.76v-.67h.449c.3,0,.38-.16.38-.46v-.959h.689v1.419h1v.67h-1v3.818h.95v.67Z"/>
    <path d="M29.909,189.04h.759v3.078h.1a1.24,1.24,0,0,1,1.319-.96c.919,0,1.479.62,1.479,1.919v3.359h-.759v-3.309c0-.819-.34-1.279-1.04-1.279a1.036,1.036,0,0,0-1.1,1.07v3.518h-.759Z"/>
    <path d="M34.689,193.857c0-1.919.9-2.7,2.109-2.7s2.009.78,2.009,2.7v.19H35.5v.33c0,1.009.491,1.509,1.3,1.509a1.355,1.355,0,0,0,1.369-.9l.52.38a1.953,1.953,0,0,1-1.889,1.19C35.588,196.556,34.689,195.776,34.689,193.857Zm.809-.52v.13H38v-.13c0-1.009-.41-1.539-1.2-1.539C35.979,191.8,35.5,192.328,35.5,193.337Z"/>
    <path d="M42.11,196.436v-5.158h.758v.84h.1a1.24,1.24,0,0,1,1.319-.96c.919,0,1.479.62,1.479,1.919v3.359h-.759v-3.309c0-.819-.34-1.279-1.04-1.279a1.037,1.037,0,0,0-1.1,1.07v3.518Z"/>
    <path d="M50.5,196.436a.665.665,0,0,1-.739-.74v-.1h-.1a1.27,1.27,0,0,1-1.3.96,1.327,1.327,0,0,1-1.49-1.5c0-.96.621-1.56,1.959-1.56h.93v-.569c0-.76-.33-1.11-1.059-1.11a1.25,1.25,0,0,0-1.2.76l-.449-.42a1.848,1.848,0,0,1,1.679-.99c1.159,0,1.789.58,1.789,1.68v2.918h.519v.67Zm-.739-1.58v-.779h-.949c-.8,0-1.15.279-1.15.779v.281c0,.519.35.759.89.759A1.144,1.144,0,0,0,49.757,194.856Z"/>
    <path d="M53.1,196.436c-.539,0-.779-.241-.779-.78v-3.708h-.76v-.67h.45c.3,0,.38-.16.38-.46v-.959h.689v1.419h1v.67h-1v3.818h.95v.67Z"/>
    <path d="M55.149,189.619v-.16c0-.26.139-.409.469-.409s.47.149.47.409v.16c0,.26-.14.41-.47.41S55.149,189.879,55.149,189.619Zm.09,1.659H56v5.158h-.759Z"/>
    <path d="M57.169,193.857c0-1.919.9-2.7,2.109-2.7s2.109.78,2.109,2.7-.9,2.7-2.109,2.7S57.169,195.776,57.169,193.857Zm3.4.52v-1.04c0-1.009-.47-1.5-1.29-1.5s-1.289.49-1.289,1.5v1.04c0,1.009.469,1.5,1.289,1.5S60.568,195.386,60.568,194.377Z"/>
    <path d="M62.559,196.436v-5.158h.759v.84h.1a1.241,1.241,0,0,1,1.32-.96c.919,0,1.478.62,1.478,1.919v3.359h-.759v-3.309c0-.819-.34-1.279-1.04-1.279a1.036,1.036,0,0,0-1.1,1.07v3.518Z"/>
    <path d="M70.947,196.436a.665.665,0,0,1-.74-.74v-.1h-.1a1.271,1.271,0,0,1-1.3.96,1.326,1.326,0,0,1-1.489-1.5c0-.96.619-1.56,1.959-1.56h.929v-.569c0-.76-.33-1.11-1.059-1.11a1.25,1.25,0,0,0-1.2.76l-.45-.42a1.85,1.85,0,0,1,1.679-.99c1.16,0,1.789.58,1.789,1.68v2.918h.521v.67Zm-.74-1.58v-.779h-.95c-.8,0-1.149.279-1.149.779v.281c0,.519.35.759.889.759A1.144,1.144,0,0,0,70.207,194.856Z"/>
    <path d="M73.3,196.436c-.54,0-.779-.241-.779-.78V189.04h.759v6.726h.65v.67Z"/>
    <path d="M80.366,196.436a.665.665,0,0,1-.739-.74v-.1h-.1a1.271,1.271,0,0,1-1.3.96,1.326,1.326,0,0,1-1.489-1.5c0-.96.619-1.56,1.959-1.56h.929v-.569c0-.76-.33-1.11-1.059-1.11a1.25,1.25,0,0,0-1.2.76l-.45-.42a1.85,1.85,0,0,1,1.679-.99c1.16,0,1.789.58,1.789,1.68v2.918h.521v.67Zm-.739-1.58v-.779h-.95c-.8,0-1.149.279-1.149.779v.281c0,.519.35.759.889.759A1.144,1.144,0,0,0,79.627,194.856Z"/>
    <path d="M82.847,196.436l-1.618-5.158h.759l.79,2.6.479,1.889h.1l.48-1.889.789-2.6h.74l-1.619,5.158Z"/>
    <path d="M85.868,193.857c0-1.919.9-2.7,2.109-2.7s2.009.78,2.009,2.7v.19H86.678v.33c0,1.009.489,1.509,1.3,1.509a1.355,1.355,0,0,0,1.369-.9l.52.38a1.952,1.952,0,0,1-1.889,1.19C86.768,196.556,85.868,195.776,85.868,193.857Zm.81-.52v.13h2.5v-.13c0-1.009-.409-1.539-1.2-1.539C87.157,191.8,86.678,192.328,86.678,193.337Z"/>
    <path d="M91.168,196.436v-5.158h.76v.96h.1a1.237,1.237,0,0,1,1.269-.96h.28v.77h-.5c-.719,0-1.149.33-1.149.96v3.428Z"/>
    <path d="M97.676,196.436a.665.665,0,0,1-.739-.74v-.1h-.1a1.272,1.272,0,0,1-1.3.96,1.326,1.326,0,0,1-1.489-1.5c0-.96.62-1.56,1.959-1.56h.93v-.569c0-.76-.33-1.11-1.06-1.11a1.248,1.248,0,0,0-1.2.76l-.449-.42a1.846,1.846,0,0,1,1.678-.99c1.16,0,1.79.58,1.79,1.68v2.918h.519v.67Zm-.739-1.58v-.779h-.949c-.8,0-1.15.279-1.15.779v.281c0,.519.35.759.89.759A1.144,1.144,0,0,0,96.937,194.856Z"/>
    <path d="M100.917,198.555c-1.479,0-2.059-.451-2.059-1.28a.9.9,0,0,1,.75-.96v-.139a.766.766,0,0,1-.43-.7.79.79,0,0,1,.789-.831v-.11a1.643,1.643,0,0,1-.849-1.589,1.622,1.622,0,0,1,1.769-1.779,2.151,2.151,0,0,1,.869.17v-.18c0-.389.16-.55.55-.55H103v.67h-.888v.281a1.736,1.736,0,0,1,.549,1.388,1.623,1.623,0,0,1-1.769,1.78,2.6,2.6,0,0,1-.489-.05.64.64,0,0,0-.571.579c0,.26.18.4.6.4h1.13c1.159,0,1.629.48,1.629,1.36C103.186,198.1,102.456,198.555,100.917,198.555Zm.629-2.179H99.978a.7.7,0,0,0-.42.709c0,.519.309.84,1.01.84h.659c.819,0,1.249-.26,1.249-.86C102.476,196.615,102.216,196.376,101.546,196.376Zm.33-3.249v-.369a.989.989,0,0,0-1.978,0v.369a.989.989,0,0,0,1.978,0Z"/>
    <path d="M103.618,193.857c0-1.919.9-2.7,2.109-2.7s2.009.78,2.009,2.7v.19h-3.308v.33c0,1.009.489,1.509,1.3,1.509a1.355,1.355,0,0,0,1.369-.9l.52.38a1.952,1.952,0,0,1-1.889,1.19C104.518,196.556,103.618,195.776,103.618,193.857Zm.81-.52v.13h2.5v-.13c0-1.009-.409-1.539-1.2-1.539C104.907,191.8,104.428,192.328,104.428,193.337Z"/>
  </g>
  <g>
    <line x1="17" y1="289.833" x2="17" y2="153.945" fill="none" stroke="#000" stroke-miterlimit="10" stroke-width="0.5"/>
    <line x1="14" y1="153.946" x2="20" y2="153.945" fill="none" stroke="#000" stroke-miterlimit="10" stroke-width="0.5"/>
    <line x1="14" y1="289.833" x2="20" y2="289.833" fill="none" stroke="#000" stroke-miterlimit="10" stroke-width="0.5"/>
  </g>
  <g>
    <path d="M173.911,161.917a14.672,14.672,0,0,0-1.766-17.843" fill="none" stroke="#000" stroke-miterlimit="10" stroke-width="0.489"/>
    <polygon points="176.43 161.497 176.286 161.029 173.981 161.74 173.441 159.388 172.964 159.498 173.622 162.362 176.43 161.497"/>
    <polygon points="174.698 143.98 174.65 144.467 172.25 144.231 172.19 146.643 171.7 146.631 171.774 143.693 174.698 143.98"/>
  </g>
  <g>
    <path d="M113.043,95.453h-1.428V88.477h3.017c1.25,0,1.919.849,1.919,2.169a1.977,1.977,0,0,1-1.148,2.039l1.218,2.768h-1.548l-1.081-2.639h-.949Zm1.409-3.828c.38,0,.621-.17.621-.649v-.6c0-.48-.241-.649-.621-.649h-1.409v1.9Z" fill="#fff"/>
    <path d="M117.4,92.835c0-1.85.769-2.749,2.228-2.749s2.229.9,2.229,2.749v.34h-3V93.5a.929.929,0,0,0,1.009.97,1.377,1.377,0,0,0,1.169-.66l.709.83a2.35,2.35,0,0,1-1.978.929C118.323,95.573,117.4,94.663,117.4,92.835Zm1.459-.8v.319h1.539v-.319c0-.6-.26-.9-.77-.9S118.854,91.436,118.854,92.035Z" fill="#fff"/>
    <path d="M122.874,90.206h1.4v.869h.16a1.265,1.265,0,0,1,1.2-.989c1.209,0,1.759.93,1.759,2.749s-.54,2.738-1.759,2.738a1.267,1.267,0,0,1-1.2-.989h-.16v2.868h-1.4Zm3.059,3.288V92.165a.832.832,0,0,0-.86-.939c-.5,0-.8.239-.8.7v1.809c0,.459.3.7.8.7A.833.833,0,0,0,125.933,93.494Z" fill="#fff"/>
    <path d="M128.474,95.453V90.206h1.4v1.119h.16c.07-.6.36-1.119,1.059-1.119h.25v1.419h-.359c-.76,0-1.11.18-1.11.77v3.058Z" fill="#fff"/>
    <path d="M131.9,92.835c0-1.85.769-2.749,2.228-2.749s2.229.9,2.229,2.749v.34h-3V93.5a.929.929,0,0,0,1.009.97,1.377,1.377,0,0,0,1.169-.66l.709.83a2.35,2.35,0,0,1-1.978.929C132.823,95.573,131.9,94.663,131.9,92.835Zm1.459-.8v.319h1.539v-.319c0-.6-.26-.9-.77-.9S133.354,91.436,133.354,92.035Z" fill="#fff"/>
    <path d="M136.964,94.644l.829-.83a1.485,1.485,0,0,0,1.26.68c.449,0,.67-.181.67-.54,0-.28-.13-.43-.45-.49l-.53-.1c-1.129-.21-1.6-.679-1.6-1.6,0-1.1.67-1.68,1.919-1.68a2.381,2.381,0,0,1,1.909.79l-.8.819a1.437,1.437,0,0,0-1.1-.53c-.4,0-.61.181-.61.54,0,.29.14.43.47.49l.55.1c1.1.2,1.559.649,1.559,1.519,0,1.12-.75,1.759-2.019,1.759A2.506,2.506,0,0,1,136.964,94.644Z" fill="#fff"/>
    <path d="M141.724,92.835c0-1.85.769-2.749,2.228-2.749s2.23.9,2.23,2.749v.34h-3V93.5a.93.93,0,0,0,1.01.97,1.38,1.38,0,0,0,1.169-.66l.71.83a2.356,2.356,0,0,1-1.979.929C142.654,95.573,141.724,94.663,141.724,92.835Zm1.459-.8v.319h1.539v-.319c0-.6-.26-.9-.77-.9S143.183,91.436,143.183,92.035Z" fill="#fff"/>
    <path d="M147.2,95.453V90.206h1.4v.89h.16a1.239,1.239,0,0,1,1.22-1.01c.939,0,1.459.68,1.459,1.8v3.568h-1.4v-3.3c0-.63-.2-.929-.649-.929a.732.732,0,0,0-.79.739v3.488Z" fill="#fff"/>
    <path d="M154.323,95.453c-.959,0-1.37-.41-1.37-1.339V91.3h-.659V90.206h.32c.37,0,.48-.15.48-.51v-.909h1.259v1.419h.92V91.3h-.92v3.068h.819v1.09Z" fill="#fff"/>
    <path d="M159.682,95.453c-.55,0-.84-.3-.89-.909h-.13a1.239,1.239,0,0,1-1.319,1.029,1.344,1.344,0,0,1-1.429-1.529c0-1.14.749-1.639,1.989-1.639h.759V92c0-.54-.21-.809-.739-.809a1.135,1.135,0,0,0-1,.639l-.829-.739a2.174,2.174,0,0,1,1.959-1c1.359,0,2.009.649,2.009,1.909v2.368h.429v1.09Zm-1.02-1.579v-.649h-.63c-.479,0-.718.21-.718.6v.19a.52.52,0,0,0,.589.58A.692.692,0,0,0,158.662,93.874Z" fill="#fff"/>
    <path d="M163.023,95.453c-.959,0-1.369-.41-1.369-1.339V91.3h-.661V90.206h.321c.37,0,.479-.15.479-.51v-.909h1.26v1.419h.919V91.3h-.919v3.068h.819v1.09Z" fill="#fff"/>
    <path d="M164.8,88.877v-.22c0-.42.25-.69.819-.69s.82.27.82.69v.22c0,.42-.25.689-.82.689S164.8,89.3,164.8,88.877Zm.12,1.329h1.4v5.247h-1.4Z" fill="#fff"/>
    <path d="M168.583,95.453l-1.51-5.247h1.419l.731,2.858.21,1.209h.159l.21-1.209.73-2.858h1.359l-1.509,5.247Z" fill="#fff"/>
    <path d="M172.264,92.835c0-1.85.769-2.749,2.228-2.749s2.229.9,2.229,2.749v.34h-3V93.5a.929.929,0,0,0,1.009.97,1.38,1.38,0,0,0,1.17-.66l.709.83a2.354,2.354,0,0,1-1.979.929C173.193,95.573,172.264,94.663,172.264,92.835Zm1.459-.8v.319h1.539v-.319c0-.6-.26-.9-.77-.9S173.723,91.436,173.723,92.035Z" fill="#fff"/>
  </g>
  <g>
    <path d="M146.1,225.282h2.449c1.7,0,2.729.99,2.729,3.489s-1.031,3.488-2.729,3.488H146.1Zm2.449,5.728c.789,0,1.209-.45,1.209-1.4v-1.678c0-.951-.42-1.4-1.209-1.4h-1.02v4.478Z" fill="#fff"/>
    <path d="M152.314,225.683v-.22c0-.42.25-.691.819-.691s.82.271.82.691v.22c0,.42-.25.689-.82.689S152.314,226.1,152.314,225.683Zm.12,1.329h1.4v5.247h-1.4Z" fill="#fff"/>
    <path d="M154.743,231.449l.83-.829a1.485,1.485,0,0,0,1.259.68c.45,0,.67-.181.67-.54,0-.281-.13-.43-.449-.49l-.53-.1c-1.129-.21-1.6-.68-1.6-1.6,0-1.1.669-1.679,1.919-1.679a2.376,2.376,0,0,1,1.908.79l-.8.819a1.436,1.436,0,0,0-1.1-.53c-.4,0-.61.18-.61.54,0,.29.14.429.47.49l.549.1c1.1.2,1.56.649,1.56,1.519,0,1.119-.75,1.759-2.019,1.759A2.506,2.506,0,0,1,154.743,231.449Z" fill="#fff"/>
    <path d="M161.383,232.259c-.96,0-1.37-.41-1.37-1.339V228.1h-.659v-1.089h.319c.37,0,.481-.151.481-.51v-.909h1.258v1.419h.92V228.1h-.92v3.068h.82v1.09Z" fill="#fff"/>
    <path d="M163.283,232.259v-5.247h1.4v1.119h.16c.069-.6.359-1.119,1.059-1.119h.25v1.419h-.36c-.76,0-1.109.179-1.109.769v3.059Z" fill="#fff"/>
    <path d="M166.934,225.683v-.22c0-.42.25-.691.819-.691s.82.271.82.691v.22c0,.42-.25.689-.82.689S166.934,226.1,166.934,225.683Zm.12,1.329h1.4v5.247h-1.4Z" fill="#fff"/>
    <path d="M169.474,229.641c0-1.85.759-2.749,2.219-2.749a1.8,1.8,0,0,1,1.908,1.359l-1.129.5c-.07-.5-.29-.75-.779-.75-.51,0-.76.3-.76.9v1.47c0,.6.25.9.76.9s.718-.26.839-.791l1.089.481a1.819,1.819,0,0,1-1.928,1.419C170.233,232.379,169.474,231.489,169.474,229.641Z" fill="#fff"/>
    <path d="M176.173,232.259c-.96,0-1.37-.41-1.37-1.339V228.1h-.659v-1.089h.319c.37,0,.481-.151.481-.51v-.909H176.2v1.419h.92V228.1h-.92v3.068h.82v1.09Z" fill="#fff"/>
  </g>
</svg>
